<svg xmlns="http://www.w3.org/2000/svg" viewBox="0 0 84.55 84.55"><defs><style>.cls-1{fill:#9dcb3b;}.cls-2{fill:#fef4f8;}</style></defs><title>DRV</title><g id="Layer_2" data-name="Layer 2"><circle class="cls-1" cx="42.27" cy="42.27" r="42.27"/><path class="cls-2" d="M75.73,34.75a2.73,2.73,0,0,0-1.61-1.88l-5.78.67L63.23,21.18a6.48,6.48,0,0,0-5.64-4H26.69a6.49,6.49,0,0,0-5.65,4L15.94,33.4l-5.51-.53a2.75,2.75,0,0,0-1.62,1.88c-.4,1.48-.8,4.16,2.69,5.1l1.88.27c-2.28,4.44-4.7,12.37,1.75,19.08a11.94,11.94,0,0,0,2.55,1.62v3.89a2.7,2.7,0,0,0,2.69,2.69h3.49a2.7,2.7,0,0,0,2.69-2.69V61.08H57.73v3.63a2.69,2.69,0,0,0,2.68,2.69H64a2.7,2.7,0,0,0,2.69-2.69V60.82a4.83,4.83,0,0,0,2.42-1.62c6.72-6.58,4.57-14.51,2.28-19.08L73,40C76.54,39.05,76.13,36.49,75.73,34.75ZM25.07,22.92l.14-.13c0-.14.4-.81,1.74-1.08H57.19c1.34.14,1.74.94,1.74,1.08L64,34.88,20,34.75ZM22.92,50.2a3.9,3.9,0,0,1,0-7.79,3.81,3.81,0,0,1,3.9,3.89A3.91,3.91,0,0,1,22.92,50.2Zm37.76,0a3.9,3.9,0,1,1,0-7.79,3.81,3.81,0,0,1,3.9,3.89A3.91,3.91,0,0,1,60.68,50.2Z"/></g></svg>