<svg xmlns="http://www.w3.org/2000/svg" viewBox="0 0 84.55 84.55"><defs><style>.cls-1{fill:#eae853;}.cls-2{fill:#7f5a4e;}</style></defs><title>KIT</title><g id="Layer_2" data-name="Layer 2"><circle class="cls-1" cx="42.27" cy="42.27" r="42.27"/><path class="cls-2" d="M32.51,36.39,37.4,44l3.44-3.93-5.12-6c2.19-3.21,1.63-8.49-1.63-12.82-3.83-5.12-10-7.09-13.67-4.34s-3.6,9.17.22,14.29C24,35.55,28.86,37.57,32.51,36.39Z"/><path class="cls-2" d="M47.08,47.41l-3.71,5.8,9,13.89a4.17,4.17,0,0,0,6,1.07l.34-.28a4.22,4.22,0,0,0,.68-6.08Z"/><path class="cls-2" d="M66.54,21.6a1.21,1.21,0,0,0-1.91.06L56.41,32.17a.85.85,0,0,1-1.12.17h0a.8.8,0,0,1-.17-1.12l7.71-10.86a1.28,1.28,0,0,0-.06-1.57,1.21,1.21,0,0,0-1.91.05L52.65,29.36a.88.88,0,0,1-1.13.17h0a.81.81,0,0,1-.17-1.13C53.1,26,59.11,17.49,59.11,17.49a1.24,1.24,0,0,0-.5-1.85,1.32,1.32,0,0,0-1.52.39L48.43,27.17h0L47.3,28.63a6.81,6.81,0,0,0-1.4,4.89l.5,3.26-21.54,25a4.21,4.21,0,0,0,.68,6.07l.34.28a4.18,4.18,0,0,0,6-1.07L49.67,39.32,53,38.87a7,7,0,0,0,4.33-2.76l1.13-1.46h0l8.15-11.48A1.26,1.26,0,0,0,66.54,21.6Z"/></g></svg>