<svg xmlns="http://www.w3.org/2000/svg" xmlns:xlink="http://www.w3.org/1999/xlink" viewBox="0 0 84.55 84.55"><defs><style>.cls-1{fill:#614236;}.cls-2{clip-path:url(#clip-path);}.cls-3{fill:#c2d146;}</style><clipPath id="clip-path"><circle class="cls-1" cx="42.32" cy="42.41" r="42.23"/></clipPath></defs><title>LB</title><g id="Layer_2" data-name="Layer 2"><circle class="cls-1" cx="42.32" cy="42.41" r="42.23"/><g class="cls-2"><path class="cls-3" d="M68.2,81.22c0,3.8-11.59,6.89-25.88,6.89S16.43,85,16.43,81.22c0-3.42,9.32-6.25,21.55-6.79V59.82H29.32A13,13,0,0,1,18.65,39.39l.33-.46-.24-.51a12.88,12.88,0,0,1-1.25-5.57A13,13,0,0,1,28.72,20l.53-.07.22-.5a13,13,0,0,1,24.86,4.87l0,.62.58.24a13,13,0,0,1,7.89,10.67l0,.42.33.26a13.08,13.08,0,0,1,2.37,2.33,12.85,12.85,0,0,1,2.76,8,13,13,0,0,1-13,13H45.74V74.4C58.42,74.84,68.2,77.72,68.2,81.22Z"/></g></g></svg>