<svg xmlns="http://www.w3.org/2000/svg" viewBox="0 0 84.55 84.55"><defs><style>.cls-1{fill:#fff;}.cls-2{fill:#af1f23;}.cls-3{fill:#3f632f;}</style></defs><title>OBT</title><g id="Layer_2" data-name="Layer 2"><circle class="cls-1" cx="42.27" cy="42.27" r="42.27"/><path class="cls-2" d="M13.28,36.13a4.06,4.06,0,0,1,3.5,1.65,4.46,4.46,0,0,1,.58,4,7.45,7.45,0,0,1-2.73,4,7.11,7.11,0,0,1-4.46,1.65,4.19,4.19,0,0,1-3.58-1.65,4.43,4.43,0,0,1-.6-4,7.34,7.34,0,0,1,2.73-4A7.35,7.35,0,0,1,13.28,36.13Zm-1.18,4a1.91,1.91,0,0,0-1.23.47,2.23,2.23,0,0,0-.77,1.15,1.32,1.32,0,0,0,.16,1.15,1.1,1.1,0,0,0,1,.48,2,2,0,0,0,1.24-.48,2.17,2.17,0,0,0,.77-1.15,1.32,1.32,0,0,0-.15-1.15A1.14,1.14,0,0,0,12.1,40.13Z"/><path class="cls-2" d="M23.72,33.71l-2.15,8.07c-.35,1.31-.06,2,.88,2a1.83,1.83,0,0,0,1.13-.41,1.88,1.88,0,0,0,.69-1,1.19,1.19,0,0,0-.13-1,1,1,0,0,0-.85-.41,2.31,2.31,0,0,0-1,.35l1.09-4.06c.45,0,.78-.06,1-.06a3.66,3.66,0,0,1,3.17,1.5A4.07,4.07,0,0,1,28,42.26a6.78,6.78,0,0,1-2.48,3.64,6.57,6.57,0,0,1-4.11,1.48,4.34,4.34,0,0,1-2-.48A3.3,3.3,0,0,1,18,45.59a4.76,4.76,0,0,1-.2-3.68L20,33.71Z"/><path class="cls-2" d="M35.22,37.14a3.69,3.69,0,0,1,3.18,1.5,4.05,4.05,0,0,1,.53,3.61,6.81,6.81,0,0,1-2.48,3.63,6.49,6.49,0,0,1-4.06,1.5,3.8,3.8,0,0,1-3.26-1.5,4.06,4.06,0,0,1-.55-3.63,6.79,6.79,0,0,1,2.49-3.64A6.68,6.68,0,0,1,35.22,37.14Zm-1.08,3.64a1.75,1.75,0,0,0-1.12.43,2,2,0,0,0-.69,1,1.18,1.18,0,0,0,.14,1.05,1,1,0,0,0,.88.43,1.82,1.82,0,0,0,1.13-.43,2,2,0,0,0,.7-1.05,1.2,1.2,0,0,0-.13-1A1,1,0,0,0,34.14,40.78Z"/><path class="cls-2" d="M45.43,33.76l-1,3.77h1.66l-1,3.9H43.38a2.37,2.37,0,0,0-.06,1.62c.16.3.58.44,1.23.44l-1,3.88h-.43a4.14,4.14,0,0,1-2.21-.58,3.21,3.21,0,0,1-1.36-1.58,5.42,5.42,0,0,1,.06-3.38l2.16-8.08Z"/><path class="cls-2" d="M52.13,37.44l-1.06,4a1.14,1.14,0,0,0-.63-.22c-.68,0-1.15.52-1.43,1.54l-1.24,4.67H44.08L45.51,42a6.49,6.49,0,0,1,2.08-3.4A5.2,5.2,0,0,1,51,37.34,7.17,7.17,0,0,1,52.13,37.44Z"/><path class="cls-2" d="M58.05,37.14a3.69,3.69,0,0,1,3.18,1.5,4.05,4.05,0,0,1,.53,3.61,6.81,6.81,0,0,1-2.48,3.63,6.49,6.49,0,0,1-4.06,1.5A3.82,3.82,0,0,1,52,45.88a4,4,0,0,1-.55-3.63,6.79,6.79,0,0,1,2.49-3.64A6.68,6.68,0,0,1,58.05,37.14ZM57,40.78a1.76,1.76,0,0,0-1.13.43,2,2,0,0,0-.69,1,1.18,1.18,0,0,0,.14,1.05,1,1,0,0,0,.88.43,1.82,1.82,0,0,0,1.13-.43,2,2,0,0,0,.7-1.05,1.2,1.2,0,0,0-.13-1A1,1,0,0,0,57,40.78Z"/><path class="cls-2" d="M69.67,47.38H66l1.49-5.55c.15-.57,0-.85-.47-.85s-.77.28-.92.85l-1.49,5.55H60.89l1.47-5.49a6.1,6.1,0,0,1,2.14-3.24A5.39,5.39,0,0,1,68,37.34a3.13,3.13,0,0,1,3,1.52,4.4,4.4,0,0,1,.1,3.33Z"/><path class="cls-2" d="M80.89,33.51l-1,3.85a2,2,0,0,0-.63-.15,1.4,1.4,0,0,0-.88.33,1.66,1.66,0,0,0-.54.81,2,2,0,0,0,.08,1l.17.53a5,5,0,0,1,.08,2.78A6.18,6.18,0,0,1,75.87,46a6.07,6.07,0,0,1-3.78,1.36,3.79,3.79,0,0,1-1.79-.44l1-3.9a1.54,1.54,0,0,0,.92.36,1.62,1.62,0,0,0,.95-.3,1.3,1.3,0,0,0,.55-.75,2.9,2.9,0,0,0-.21-1.29,5.66,5.66,0,0,1-.06-3.16,6.25,6.25,0,0,1,2.24-3.29,5.74,5.74,0,0,1,3.61-1.37A4.39,4.39,0,0,1,80.89,33.51Z"/><path class="cls-3" d="M8.94,52.28v.11a.2.2,0,0,0,0,.07s0,0,0,0l0,.05-.11.07-.18.09-.25.06a1.55,1.55,0,0,1-.31,0,1.54,1.54,0,0,1-.58-.1,1.12,1.12,0,0,1-.44-.3,1.37,1.37,0,0,1-.28-.49,2.4,2.4,0,0,1-.09-.69,2.15,2.15,0,0,1,.1-.7A1.44,1.44,0,0,1,7,50a1.36,1.36,0,0,1,.46-.32,1.59,1.59,0,0,1,.59-.1,1.06,1.06,0,0,1,.25,0,.79.79,0,0,1,.22.06l.19.08.11.07.05.06s0,0,0,.06,0,0,0,.07v.24a.45.45,0,0,1,0,.08.11.11,0,0,1,0,0l0,0a.21.21,0,0,1-.09,0l-.14-.09a.9.9,0,0,0-.22-.1,1.12,1.12,0,0,0-.29,0,.73.73,0,0,0-.33.08.72.72,0,0,0-.25.21,1.13,1.13,0,0,0-.16.35,2,2,0,0,0-.05.45,1.75,1.75,0,0,0,.06.48,1,1,0,0,0,.16.33.79.79,0,0,0,.25.2.93.93,0,0,0,.34.06.85.85,0,0,0,.29,0l.22-.09.14-.09.09,0h0s0,0,0,0,0,0,0,.08Z"/><path class="cls-3" d="M12.68,51.58a1.59,1.59,0,0,1-.07.5,1.07,1.07,0,0,1-.22.39.87.87,0,0,1-.37.25,1.38,1.38,0,0,1-.52.09,1.51,1.51,0,0,1-.5-.07,1.13,1.13,0,0,1-.36-.24.88.88,0,0,1-.2-.37,1.61,1.61,0,0,1-.07-.51,1.7,1.7,0,0,1,.07-.51,1.07,1.07,0,0,1,.22-.39,1,1,0,0,1,.37-.25,1.38,1.38,0,0,1,.52-.09,1.5,1.5,0,0,1,.5.08.89.89,0,0,1,.36.23.92.92,0,0,1,.2.38A1.53,1.53,0,0,1,12.68,51.58Zm-.63,0a1.28,1.28,0,0,0,0-.29.85.85,0,0,0-.09-.24.39.39,0,0,0-.16-.15.46.46,0,0,0-.25-.06.6.6,0,0,0-.24,0,.33.33,0,0,0-.16.15.54.54,0,0,0-.1.23,1,1,0,0,0,0,.3,1.39,1.39,0,0,0,0,.3.79.79,0,0,0,.09.23.33.33,0,0,0,.16.15.49.49,0,0,0,.25.06.6.6,0,0,0,.24,0,.4.4,0,0,0,.17-.15A.61.61,0,0,0,12,51.9,1.32,1.32,0,0,0,12.05,51.6Z"/><path class="cls-3" d="M16,50.72a.53.53,0,0,1,0,.14s0,.07,0,.09,0,0,0,0l0,0h0l-.05,0-.07,0h-.08l-.1,0-.11.07-.11.11-.13.18v1.35a.06.06,0,0,1,0,0l-.05,0-.1,0h-.29l-.09,0-.05,0,0,0V50.52s0,0,0,0a.1.1,0,0,1,.05,0H15l0,0s0,0,0,0v.27a2,2,0,0,1,.16-.2.58.58,0,0,1,.15-.13.31.31,0,0,1,.13-.06l.14,0h.06l.08,0h.07l0,0,0,0a.11.11,0,0,0,0,0,.23.23,0,0,0,0,.07Z"/><path class="cls-3" d="M20.09,51.57a2.12,2.12,0,0,1-.06.52,1.17,1.17,0,0,1-.18.39.78.78,0,0,1-.29.25.91.91,0,0,1-.41.08H19a.94.94,0,0,1-.15-.06l-.15-.09-.15-.13v1a.09.09,0,0,1,0,0l-.05,0-.1,0h-.29l-.1,0,0,0a.06.06,0,0,1,0,0v-3s0,0,0,0a.07.07,0,0,1,.05,0h.4s0,0,0,0a.05.05,0,0,1,0,0v.25l.18-.17a.76.76,0,0,1,.19-.12A.77.77,0,0,1,19,50.4l.22,0a.84.84,0,0,1,.4.09.75.75,0,0,1,.27.26,1.32,1.32,0,0,1,.16.38A2.19,2.19,0,0,1,20.09,51.57Zm-.63,0a2.45,2.45,0,0,0,0-.27.71.71,0,0,0-.07-.22.42.42,0,0,0-.13-.16.34.34,0,0,0-.2-.06l-.12,0L18.8,51l-.13.1a1.27,1.27,0,0,0-.14.17V52a2,2,0,0,0,.24.25.4.4,0,0,0,.25.09.34.34,0,0,0,.2-.06.73.73,0,0,0,.14-.16.81.81,0,0,0,.07-.22A1.13,1.13,0,0,0,19.46,51.61Z"/><path class="cls-3" d="M23.91,51.58a1.59,1.59,0,0,1-.08.5,1.07,1.07,0,0,1-.22.39.87.87,0,0,1-.37.25,1.38,1.38,0,0,1-.52.09,1.51,1.51,0,0,1-.5-.07,1,1,0,0,1-.35-.24.9.9,0,0,1-.21-.37,1.61,1.61,0,0,1-.07-.51,1.7,1.7,0,0,1,.08-.51,1.07,1.07,0,0,1,.22-.39,1,1,0,0,1,.37-.25,1.35,1.35,0,0,1,.52-.09,1.5,1.5,0,0,1,.5.08.86.86,0,0,1,.35.23,1.07,1.07,0,0,1,.21.38A1.85,1.85,0,0,1,23.91,51.58Zm-.63,0a1.23,1.23,0,0,0,0-.29.62.62,0,0,0-.08-.24.46.46,0,0,0-.16-.15.5.5,0,0,0-.26-.06.52.52,0,0,0-.23,0,.35.35,0,0,0-.17.15.7.7,0,0,0-.1.23,1.52,1.52,0,0,0,0,.6.57.57,0,0,0,.08.23.33.33,0,0,0,.16.15.49.49,0,0,0,.25.06.54.54,0,0,0,.24,0,.35.35,0,0,0,.17-.15.61.61,0,0,0,.1-.23A1.32,1.32,0,0,0,23.28,51.6Z"/><path class="cls-3" d="M27.18,50.72v.14a.2.2,0,0,1,0,.09.05.05,0,0,1,0,0l0,0h0L27,51l-.07,0h-.08l-.1,0-.1.07a.6.6,0,0,0-.12.11,1.4,1.4,0,0,0-.12.18v1.35l0,0-.05,0-.09,0H26l-.09,0-.05,0a.06.06,0,0,1,0,0V50.52s0,0,0,0l0,0h.42l0,0s0,0,0,0v.27a1.16,1.16,0,0,1,.16-.2.79.79,0,0,1,.14-.13.42.42,0,0,1,.14-.06l.13,0H27l.07,0h.07l0,0,0,0a.07.07,0,0,1,0,0s0,0,0,.07Z"/><path class="cls-3" d="M31.22,52.68a.07.07,0,0,1,0,.06l-.07,0H30.8l-.06,0a.07.07,0,0,1,0-.06v-.17a1,1,0,0,1-.3.23.92.92,0,0,1-.38.07,1,1,0,0,1-.31,0,.66.66,0,0,1-.25-.13.72.72,0,0,1-.17-.22,1,1,0,0,1-.05-.31.66.66,0,0,1,.07-.32.56.56,0,0,1,.22-.24,1.15,1.15,0,0,1,.37-.13,2.47,2.47,0,0,1,.5,0h.21v-.13a.9.9,0,0,0,0-.18.33.33,0,0,0-.07-.13.24.24,0,0,0-.12-.07.6.6,0,0,0-.2,0,.77.77,0,0,0-.27,0,1,1,0,0,0-.21.07,1.19,1.19,0,0,0-.16.08l-.1,0,0,0a.08.08,0,0,1,0,0,.24.24,0,0,0,0-.08s0-.07,0-.1a.37.37,0,0,1,0-.12.2.2,0,0,1,0-.08.41.41,0,0,1,.12-.08l.2-.08L30,50.4l.27,0a1.84,1.84,0,0,1,.44,0,.71.71,0,0,1,.3.15.73.73,0,0,1,.17.27,1.35,1.35,0,0,1,0,.38Zm-.6-.92h-.23l-.25,0a.54.54,0,0,0-.17.07.24.24,0,0,0-.1.1.32.32,0,0,0,0,.14.29.29,0,0,0,.09.22.33.33,0,0,0,.24.07.46.46,0,0,0,.23-.06,1.24,1.24,0,0,0,.22-.19Z"/><path class="cls-3" d="M34.74,52.46a.72.72,0,0,1,0,.17.34.34,0,0,1,0,.08l-.07,0-.09,0-.13,0h-.13a1,1,0,0,1-.32-.05.55.55,0,0,1-.22-.14.46.46,0,0,1-.12-.24,1.16,1.16,0,0,1,0-.34V50.93H33.3s0,0-.07-.06a.78.78,0,0,1,0-.19.45.45,0,0,1,0-.12s0-.05,0-.07l0,0h.3V50a.08.08,0,0,1,0,0l0,0,.1,0H34l.09,0,0,0a.06.06,0,0,1,0,0v.49h.51s0,0,0,0a.14.14,0,0,1,0,.07.45.45,0,0,1,0,.12.44.44,0,0,1,0,.19.07.07,0,0,1-.07.06h-.47v1a.49.49,0,0,0,.06.27.2.2,0,0,0,.19.09h.09l.07,0,.05,0h.07l0,0s0,0,0,.07A.37.37,0,0,1,34.74,52.46Z"/><path class="cls-3" d="M38.06,49.79A.34.34,0,0,1,38,50a.39.39,0,0,1-.28.07.37.37,0,0,1-.27-.07.3.3,0,0,1-.08-.24.37.37,0,0,1,.08-.26.45.45,0,0,1,.28-.07.38.38,0,0,1,.27.07A.34.34,0,0,1,38.06,49.79Zm0,2.89,0,0,0,0-.1,0h-.29l-.1,0,0,0a.06.06,0,0,1,0,0V50.52a.06.06,0,0,1,0,0l0,0,.1,0h.29l.1,0,0,0a.08.08,0,0,1,0,0Z"/><path class="cls-3" d="M42.61,51.58a1.59,1.59,0,0,1-.07.5,1.07,1.07,0,0,1-.22.39.87.87,0,0,1-.37.25,1.38,1.38,0,0,1-.52.09,1.51,1.51,0,0,1-.5-.07,1.13,1.13,0,0,1-.36-.24.88.88,0,0,1-.2-.37,1.61,1.61,0,0,1-.07-.51,1.7,1.7,0,0,1,.07-.51,1.09,1.09,0,0,1,.23-.39.93.93,0,0,1,.36-.25,1.42,1.42,0,0,1,.52-.09,1.52,1.52,0,0,1,.51.08.86.86,0,0,1,.35.23,1.07,1.07,0,0,1,.21.38A1.88,1.88,0,0,1,42.61,51.58Zm-.62,0a1.23,1.23,0,0,0,0-.29.5.5,0,0,0-.09-.24.33.33,0,0,0-.16-.15.46.46,0,0,0-.25-.06.6.6,0,0,0-.24,0,.33.33,0,0,0-.16.15.54.54,0,0,0-.1.23,1.39,1.39,0,0,0,0,.3,1.42,1.42,0,0,0,0,.3.79.79,0,0,0,.09.23.33.33,0,0,0,.16.15.49.49,0,0,0,.25.06.6.6,0,0,0,.24,0,.4.4,0,0,0,.17-.15.83.83,0,0,0,.1-.23A1.32,1.32,0,0,0,42,51.6Z"/><path class="cls-3" d="M46.23,52.68v0l0,0-.1,0h-.29l-.1,0,0,0,0,0V51.44a1.44,1.44,0,0,0,0-.24.46.46,0,0,0-.07-.16.31.31,0,0,0-.11-.09.29.29,0,0,0-.16,0A.4.4,0,0,0,45,51a.91.91,0,0,0-.24.24v1.44a.08.08,0,0,1,0,0l0,0-.09,0h-.3l-.09,0,0,0a.06.06,0,0,1,0,0V50.52s0,0,0,0l0,0h.41a.1.1,0,0,1,0,0s0,0,0,0v.25a1.31,1.31,0,0,1,.36-.29.76.76,0,0,1,.39-.1.82.82,0,0,1,.37.07.68.68,0,0,1,.24.2.71.71,0,0,1,.14.29,1.59,1.59,0,0,1,0,.4Z"/><path class="cls-3" d="M53.26,52.49a.53.53,0,0,1,0,.13.19.19,0,0,1,0,.08s0,0,0,0l0,0H51.73a.22.22,0,0,1-.14,0,.21.21,0,0,1-.05-.15V49.71a.06.06,0,0,1,0,0l.06,0,.1,0H52l.1,0,0,0a.08.08,0,0,1,0,0v2.52h1l0,0s0,0,0,0a.19.19,0,0,1,0,.08A.41.41,0,0,1,53.26,52.49Z"/><path class="cls-3" d="M55.84,49.79a.34.34,0,0,1-.07.25.59.59,0,0,1-.56,0,.34.34,0,0,1-.07-.24.37.37,0,0,1,.08-.26.45.45,0,0,1,.28-.07.38.38,0,0,1,.27.07A.34.34,0,0,1,55.84,49.79Zm0,2.89v0l-.06,0-.09,0h-.29l-.1,0,0,0a.06.06,0,0,1,0,0V50.52a.06.06,0,0,1,0,0l0,0,.1,0h.29l.09,0,.06,0s0,0,0,0Z"/><path class="cls-3" d="M61.57,52.68a.08.08,0,0,1,0,0l0,0-.09,0h-.3l-.09,0-.05,0a.06.06,0,0,1,0,0V51.4a1.12,1.12,0,0,0,0-.2.77.77,0,0,0-.07-.16.22.22,0,0,0-.1-.09.27.27,0,0,0-.16,0,.37.37,0,0,0-.22.09,1.34,1.34,0,0,0-.24.24v1.44a.06.06,0,0,1,0,0l0,0-.09,0h-.3l-.09,0,0,0a.06.06,0,0,1,0,0V51.4a.6.6,0,0,0,0-.2.44.44,0,0,0-.06-.16.22.22,0,0,0-.1-.09.29.29,0,0,0-.16,0A.37.37,0,0,0,59,51a1.34,1.34,0,0,0-.24.24v1.44a.06.06,0,0,1,0,0l0,0-.09,0h-.3l-.09,0-.05,0,0,0V50.52s0,0,0,0a.07.07,0,0,1,0,0h.41l0,0s0,0,0,0v.25a1.31,1.31,0,0,1,.36-.29.71.71,0,0,1,.37-.1.88.88,0,0,1,.24,0,.64.64,0,0,1,.19.08.41.41,0,0,1,.14.12.91.91,0,0,1,.11.16,1.62,1.62,0,0,1,.19-.18l.18-.12.18-.07.19,0a.8.8,0,0,1,.36.07.68.68,0,0,1,.24.2.86.86,0,0,1,.13.29,2,2,0,0,1,0,.36Z"/><path class="cls-3" d="M64.47,49.79a.34.34,0,0,1-.07.25.6.6,0,0,1-.56,0,.34.34,0,0,1-.07-.24.43.43,0,0,1,.07-.26.51.51,0,0,1,.29-.07.38.38,0,0,1,.27.07A.34.34,0,0,1,64.47,49.79Zm0,2.89,0,0,0,0-.09,0H64l-.09,0-.05,0a.06.06,0,0,1,0,0V50.52a.06.06,0,0,1,0,0l.05,0,.09,0h.3l.09,0,0,0a.08.08,0,0,1,0,0Z"/><path class="cls-3" d="M68.08,52.46a.81.81,0,0,1,0,.17.15.15,0,0,1,0,.08l-.06,0-.1,0-.12,0h-.14a1,1,0,0,1-.31-.05.55.55,0,0,1-.22-.14.47.47,0,0,1-.13-.24,1.18,1.18,0,0,1,0-.34V50.93h-.26s-.05,0-.07-.06a.44.44,0,0,1,0-.19s0-.09,0-.12a.14.14,0,0,1,0-.07l0,0h.3V50a.06.06,0,0,1,0,0l0,0,.09,0h.3l.09,0,0,0a.06.06,0,0,1,0,0v.49H68l0,0a.25.25,0,0,0,0,.07v.12a.78.78,0,0,1,0,.19s0,.06-.07.06h-.48v1a.6.6,0,0,0,.06.27.23.23,0,0,0,.2.09h.09l.07,0,0,0H68l0,0a.64.64,0,0,1,0,.07Z"/><path class="cls-3" d="M72.21,51.53a.22.22,0,0,1,0,.17.15.15,0,0,1-.13,0H70.71a.62.62,0,0,0,0,.25.39.39,0,0,0,.1.19.36.36,0,0,0,.18.12.76.76,0,0,0,.27,0,1.14,1.14,0,0,0,.28,0l.21,0,.15-.05a.18.18,0,0,1,.09,0h0a.05.05,0,0,1,0,0s0,0,0,.06v.19s0,0,0,.06a.43.43,0,0,1,0,0l0,0-.09,0a.58.58,0,0,1-.17.05l-.25,0a1.51,1.51,0,0,1-.3,0,1.57,1.57,0,0,1-.51-.07,1,1,0,0,1-.36-.22.91.91,0,0,1-.22-.37,2.06,2.06,0,0,1-.07-.53,1.72,1.72,0,0,1,.08-.52,1.07,1.07,0,0,1,.22-.39.94.94,0,0,1,.34-.25,1.34,1.34,0,0,1,.46-.08,1.28,1.28,0,0,1,.47.08.87.87,0,0,1,.31.22.7.7,0,0,1,.18.34,1.37,1.37,0,0,1,.06.42Zm-.59-.17a.6.6,0,0,0-.1-.4.39.39,0,0,0-.34-.15.59.59,0,0,0-.2,0,.44.44,0,0,0-.15.12.75.75,0,0,0-.08.18,1.12,1.12,0,0,0,0,.21Z"/><path class="cls-3" d="M76.61,52.68a.06.06,0,0,1,0,0l0,0-.08,0h-.25l-.08,0,0,0a.06.06,0,0,1,0,0v-.24a1.48,1.48,0,0,1-.35.28.91.91,0,0,1-.41.09.93.93,0,0,1-.42-.09.84.84,0,0,1-.27-.26.93.93,0,0,1-.16-.38,2.14,2.14,0,0,1,0-.45,2,2,0,0,1,.06-.52,1.08,1.08,0,0,1,.18-.39.81.81,0,0,1,.3-.25.87.87,0,0,1,.4-.09.7.7,0,0,1,.33.07,1.43,1.43,0,0,1,.3.22V49.5a.06.06,0,0,1,0,0l0,0,.09,0h.3l.09,0,0,0a.06.06,0,0,1,0,0ZM76,51.23a1.47,1.47,0,0,0-.25-.25.51.51,0,0,0-.26-.09.36.36,0,0,0-.2.06.54.54,0,0,0-.14.16.81.81,0,0,0-.07.22,1.13,1.13,0,0,0,0,.25,2.28,2.28,0,0,0,0,.27,1.55,1.55,0,0,0,.07.23.54.54,0,0,0,.14.16.32.32,0,0,0,.2.06l.13,0a.34.34,0,0,0,.12-.06.6.6,0,0,0,.12-.11A.78.78,0,0,0,76,52Z"/></g></svg>