<svg xmlns="http://www.w3.org/2000/svg" viewBox="0 0 84.55 84.55"><defs><style>.cls-1{fill:#fff;}.cls-2{fill:#f58220;}.cls-3{fill:#ec2030;}.cls-4{fill:#048162;}</style></defs><title>V11</title><g id="Layer_2" data-name="Layer 2"><circle class="cls-1" cx="42.27" cy="42.27" r="42.27"/><g id="g2862"><path id="path16" class="cls-2" d="M18,11.5H60.38c-4.18,1.56-16.88,10.16-20.05,16H18L18,11.5Z"/><path id="path18" class="cls-3" d="M51.77,57.19c-.6,5.78-.63,12.81-.63,20.2H32.77a199.11,199.11,0,0,1,.92-20.2Z"/><polygon id="polygon20" class="cls-4" points="23.36 48.85 23.36 51.09 20.42 51.09 20.42 53.32 23.36 53.32 23.36 55.89 16.64 55.89 16.64 43.95 23.36 43.95 23.36 46.61 20.42 46.61 20.42 48.85 23.36 48.85"/><polygon id="polygon22" class="cls-4" points="38.97 48.85 38.97 51.09 36.05 51.09 36.05 53.32 38.97 53.32 38.97 55.89 32.27 55.89 32.27 43.95 38.97 43.95 38.97 46.61 36.05 46.61 36.05 48.85 38.97 48.85"/><polygon id="polygon24" class="cls-4" points="56.18 48.85 56.18 51.09 53.24 51.09 53.24 53.32 56.18 53.32 56.18 55.89 49.46 55.89 49.46 43.95 56.18 43.95 56.18 46.61 53.24 46.61 53.24 48.85 56.18 48.85"/><polygon id="polygon26" class="cls-4" points="28.39 43.95 28.39 53.32 31.33 53.32 31.33 55.89 24.61 55.89 24.61 43.95 28.39 43.95"/><polygon id="polygon28" class="cls-4" points="44.39 52.02 42.96 43.95 39.66 43.95 41.54 55.89 46.39 55.89 48.66 43.95 45.86 43.95 44.39 52.02"/><polygon id="polygon30" class="cls-4" points="57.77 43.95 61.4 43.95 61.4 55.89 57.77 55.89 57.77 43.95"/><path id="path32" class="cls-4" d="M61.4,47.5c.2-1.31,2.05-1,2.05-.21v8.6h3.64V45.77c0-2.14-3-3-5.67-1.12l0,2.85Z"/><path id="path34" class="cls-3" d="M53.48,42.27c.37-4.57,6.62-12,12.68-14V10.66C49.49,18.12,38.65,29.4,36.3,42.23l17.18,0Z"/></g></g></svg>